<?xml version="1.0" encoding="UTF-8" standalone="no"?>
<svg
   xmlns:dc="http://purl.org/dc/elements/1.1/"
   xmlns:cc="http://creativecommons.org/ns#"
   xmlns:rdf="http://www.w3.org/1999/02/22-rdf-syntax-ns#"
   xmlns:svg="http://www.w3.org/2000/svg"
   xmlns="http://www.w3.org/2000/svg"
   xmlns:xlink="http://www.w3.org/1999/xlink"
   xmlns:sodipodi="http://sodipodi.sourceforge.net/DTD/sodipodi-0.dtd"
   xmlns:inkscape="http://www.inkscape.org/namespaces/inkscape"
   width="64"
   height="64"
   viewBox="0 0 16.933333 16.933333"
   version="1.1"
   id="svg8"
   inkscape:version="1.0.2-2 (e86c870879, 2021-01-15)"
   sodipodi:docname="merge_plugins_hide.svg"
   inkscape:export-filename="E:\Mods\skyrimse\modorganizer\plugins\merge_plugins_hide\icon.png"
   inkscape:export-xdpi="96"
   inkscape:export-ydpi="96">
  <defs
     id="defs2">
    <linearGradient
       inkscape:collect="always"
       id="linearGradient897">
      <stop
         style="stop-color:#808080;stop-opacity:1;"
         offset="0"
         id="stop893" />
      <stop
         style="stop-color:#808080;stop-opacity:0;"
         offset="1"
         id="stop895" />
    </linearGradient>
    <linearGradient
       inkscape:collect="always"
       id="Highlight">
      <stop
         style="stop-color:#ffffff;stop-opacity:1;"
         offset="0"
         id="stop3135" />
      <stop
         style="stop-color:#ffffff;stop-opacity:0;"
         offset="1"
         id="stop3137" />
    </linearGradient>
    <marker
       inkscape:isstock="true"
       style="overflow:visible"
       id="marker1402"
       refX="0"
       refY="0"
       orient="auto"
       inkscape:stockid="TriangleOutL">
      <path
         inkscape:connector-curvature="0"
         transform="scale(0.8)"
         style="fill:#4d4d4d;fill-opacity:1;fill-rule:evenodd;stroke:#4d4d4d;stroke-width:1.00000003pt;stroke-opacity:1"
         d="M 5.77,0 -2.88,5 V -5 Z"
         id="path1400" />
    </marker>
    <marker
       inkscape:isstock="true"
       style="overflow:visible"
       id="marker834"
       refX="0"
       refY="0"
       orient="auto"
       inkscape:stockid="TriangleOutL">
      <path
         inkscape:connector-curvature="0"
         transform="scale(0.8)"
         style="fill:#4d4d4d;fill-opacity:1;fill-rule:evenodd;stroke:#4d4d4d;stroke-width:1.00000003pt;stroke-opacity:1"
         d="M 5.77,0 -2.88,5 V -5 Z"
         id="path832" />
    </marker>
    <linearGradient
       inkscape:collect="always"
       xlink:href="#Highlight"
       id="linearGradient3145"
       gradientUnits="userSpaceOnUse"
       x1="2.9104166"
       y1="291.70834"
       x2="3.4395833"
       y2="294.0896"
       gradientTransform="matrix(1.3781963,0,0,1.3781939,-3.3843854,-108.93914)" />
    <linearGradient
       inkscape:collect="always"
       xlink:href="#linearGradient897"
       id="linearGradient899"
       x1="14.184587"
       y1="294.08688"
       x2="13.630071"
       y2="291.60812"
       gradientUnits="userSpaceOnUse"
       gradientTransform="matrix(1.3781963,0,0,1.3781939,-3.3843854,-108.93914)" />
  </defs>
  <sodipodi:namedview
     id="base"
     pagecolor="#ffffff"
     bordercolor="#666666"
     borderopacity="1.0"
     inkscape:pageopacity="0"
     inkscape:pageshadow="2"
     inkscape:zoom="3.7983674"
     inkscape:cx="4.3365933"
     inkscape:cy="9.5972159"
     inkscape:document-units="px"
     inkscape:current-layer="layer1"
     showgrid="true"
     inkscape:window-width="1920"
     inkscape:window-height="1000"
     inkscape:window-x="-11"
     inkscape:window-y="-11"
     inkscape:window-maximized="1"
     inkscape:pagecheckerboard="false"
     units="px"
     inkscape:snap-bbox="true"
     inkscape:bbox-paths="true"
     inkscape:bbox-nodes="true"
     inkscape:snap-bbox-edge-midpoints="true"
     inkscape:snap-bbox-midpoints="true"
     inkscape:object-nodes="true"
     inkscape:snap-nodes="false"
     inkscape:object-paths="true"
     inkscape:snap-intersection-paths="true"
     inkscape:snap-smooth-nodes="true"
     inkscape:snap-midpoints="true"
     inkscape:snap-object-midpoints="true"
     inkscape:snap-center="true"
     inkscape:snap-global="true"
     inkscape:snap-page="true"
     inkscape:snap-grids="false"
     inkscape:document-rotation="0">
    <inkscape:grid
       type="xygrid"
       id="grid828" />
  </sodipodi:namedview>
  <metadata
     id="metadata5">
    <rdf:RDF>
      <cc:Work
         rdf:about="">
        <dc:format>image/svg+xml</dc:format>
        <dc:type
           rdf:resource="http://purl.org/dc/dcmitype/StillImage" />
        <dc:title></dc:title>
      </cc:Work>
    </rdf:RDF>
  </metadata>
  <g
     inkscape:label="Layer 1"
     inkscape:groupmode="layer"
     id="layer1"
     transform="translate(0,-280.06667)">
    <g
       id="rect4528"
       style="opacity:1">
      <path
         style="color:#000000;font-style:normal;font-variant:normal;font-weight:normal;font-stretch:normal;font-size:medium;line-height:normal;font-family:sans-serif;font-variant-ligatures:normal;font-variant-position:normal;font-variant-caps:normal;font-variant-numeric:normal;font-variant-alternates:normal;font-variant-east-asian:normal;font-feature-settings:normal;font-variation-settings:normal;text-indent:0;text-align:start;text-decoration:none;text-decoration-line:none;text-decoration-style:solid;text-decoration-color:#000000;letter-spacing:normal;word-spacing:normal;text-transform:none;writing-mode:lr-tb;direction:ltr;text-orientation:mixed;dominant-baseline:auto;baseline-shift:baseline;text-anchor:start;white-space:normal;shape-padding:0;shape-margin:0;inline-size:0;clip-rule:nonzero;display:inline;overflow:visible;visibility:visible;isolation:auto;mix-blend-mode:normal;color-interpolation:sRGB;color-interpolation-filters:linearRGB;solid-color:#000000;solid-opacity:1;vector-effect:none;fill:#aa8800;fill-opacity:1;fill-rule:nonzero;stroke:none;stroke-linecap:round;stroke-linejoin:bevel;stroke-miterlimit:4;stroke-dasharray:0.524181, 1.57254000000000005;stroke-dashoffset:0;stroke-opacity:1.0;paint-order:stroke fill markers;color-rendering:auto;image-rendering:auto;shape-rendering:auto;text-rendering:auto;enable-background:accumulate;stop-color:#000000;stop-opacity:1;"
         d="M 0.26367188 288.27148 A 0.26209056 0.26209056 0 0 0 0.001953125 288.5332 A 0.26209056 0.26209056 0 0 0 0.26367188 288.79492 L 0.7890625 288.79492 A 0.26209056 0.26209056 0 0 0 1.0507812 288.5332 A 0.26209056 0.26209056 0 0 0 0.7890625 288.27148 L 0.26367188 288.27148 z M 2.3613281 288.27148 A 0.26209056 0.26209056 0 0 0 2.0996094 288.5332 A 0.26209056 0.26209056 0 0 0 2.3613281 288.79492 L 2.8847656 288.79492 A 0.26209056 0.26209056 0 0 0 3.1484375 288.5332 A 0.26209056 0.26209056 0 0 0 2.8847656 288.27148 L 2.3613281 288.27148 z M 4.4589844 288.27148 A 0.26209056 0.26209056 0 0 0 4.1953125 288.5332 A 0.26209056 0.26209056 0 0 0 4.4589844 288.79492 L 4.9824219 288.79492 A 0.26209056 0.26209056 0 0 0 5.2441406 288.5332 A 0.26209056 0.26209056 0 0 0 4.9824219 288.27148 L 4.4589844 288.27148 z M 6.5546875 288.27148 A 0.26209056 0.26209056 0 0 0 6.2929688 288.5332 A 0.26209056 0.26209056 0 0 0 6.5546875 288.79492 L 7.078125 288.79492 A 0.26209056 0.26209056 0 0 0 7.3417969 288.5332 A 0.26209056 0.26209056 0 0 0 7.078125 288.27148 L 6.5546875 288.27148 z M 8.6523438 288.27148 A 0.26209056 0.26209056 0 0 0 8.3886719 288.5332 A 0.26209056 0.26209056 0 0 0 8.6523438 288.79492 L 9.1757812 288.79492 A 0.26209056 0.26209056 0 0 0 9.4375 288.5332 A 0.26209056 0.26209056 0 0 0 9.1757812 288.27148 L 8.6523438 288.27148 z M 10.748047 288.27148 A 0.26209056 0.26209056 0 0 0 10.486328 288.5332 A 0.26209056 0.26209056 0 0 0 10.748047 288.79492 L 11.271484 288.79492 A 0.26209056 0.26209056 0 0 0 11.535156 288.5332 A 0.26209056 0.26209056 0 0 0 11.271484 288.27148 L 10.748047 288.27148 z M 12.845703 288.27148 A 0.26209056 0.26209056 0 0 0 12.582031 288.5332 A 0.26209056 0.26209056 0 0 0 12.845703 288.79492 L 13.369141 288.79492 A 0.26209056 0.26209056 0 0 0 13.630859 288.5332 A 0.26209056 0.26209056 0 0 0 13.369141 288.27148 L 12.845703 288.27148 z M 14.941406 288.27148 A 0.26209056 0.26209056 0 0 0 14.679688 288.5332 A 0.26209056 0.26209056 0 0 0 14.941406 288.79492 L 15.466797 288.79492 A 0.26209056 0.26209056 0 0 0 15.728516 288.5332 A 0.26209056 0.26209056 0 0 0 15.466797 288.27148 L 14.941406 288.27148 z M 16.667969 288.64062 A 0.26209056 0.26209056 0 0 0 16.40625 288.90234 L 16.40625 289.42773 A 0.26209056 0.26209056 0 0 0 16.667969 289.68945 A 0.26209056 0.26209056 0 0 0 16.931641 289.42773 L 16.931641 288.90234 A 0.26209056 0.26209056 0 0 0 16.667969 288.64062 z M 0.26367188 288.91992 A 0.26209056 0.26209056 0 0 0 0.001953125 289.18164 L 0.001953125 289.70508 A 0.26209056 0.26209056 0 0 0 0.26367188 289.96875 A 0.26209056 0.26209056 0 0 0 0.52734375 289.70508 L 0.52734375 289.18164 A 0.26209056 0.26209056 0 0 0 0.26367188 288.91992 z M 16.667969 290.73828 A 0.26209056 0.26209056 0 0 0 16.40625 291 L 16.40625 291.52344 A 0.26209056 0.26209056 0 0 0 16.667969 291.78516 A 0.26209056 0.26209056 0 0 0 16.931641 291.52344 L 16.931641 291 A 0.26209056 0.26209056 0 0 0 16.667969 290.73828 z M 0.26367188 291.01562 A 0.26209056 0.26209056 0 0 0 0.001953125 291.2793 L 0.001953125 291.80273 A 0.26209056 0.26209056 0 0 0 0.26367188 292.06445 A 0.26209056 0.26209056 0 0 0 0.52734375 291.80273 L 0.52734375 291.2793 A 0.26209056 0.26209056 0 0 0 0.26367188 291.01562 z M 1.0058594 292.37305 A 0.26209056 0.26209056 0 0 0 0.74414062 292.63477 A 0.26209056 0.26209056 0 0 0 1.0058594 292.89648 L 1.5292969 292.89648 A 0.26209056 0.26209056 0 0 0 1.7910156 292.63477 A 0.26209056 0.26209056 0 0 0 1.5292969 292.37305 L 1.0058594 292.37305 z M 3.1015625 292.37305 A 0.26209056 0.26209056 0 0 0 2.8398438 292.63477 A 0.26209056 0.26209056 0 0 0 3.1015625 292.89648 L 3.6269531 292.89648 A 0.26209056 0.26209056 0 0 0 3.8886719 292.63477 A 0.26209056 0.26209056 0 0 0 3.6269531 292.37305 L 3.1015625 292.37305 z M 5.1992188 292.37305 A 0.26209056 0.26209056 0 0 0 4.9375 292.63477 A 0.26209056 0.26209056 0 0 0 5.1992188 292.89648 L 5.7226562 292.89648 A 0.26209056 0.26209056 0 0 0 5.984375 292.63477 A 0.26209056 0.26209056 0 0 0 5.7226562 292.37305 L 5.1992188 292.37305 z M 7.2949219 292.37305 A 0.26209056 0.26209056 0 0 0 7.0332031 292.63477 A 0.26209056 0.26209056 0 0 0 7.2949219 292.89648 L 7.8203125 292.89648 A 0.26209056 0.26209056 0 0 0 8.0820312 292.63477 A 0.26209056 0.26209056 0 0 0 7.8203125 292.37305 L 7.2949219 292.37305 z M 9.3925781 292.37305 A 0.26209056 0.26209056 0 0 0 9.1308594 292.63477 A 0.26209056 0.26209056 0 0 0 9.3925781 292.89648 L 9.9160156 292.89648 A 0.26209056 0.26209056 0 0 0 10.177734 292.63477 A 0.26209056 0.26209056 0 0 0 9.9160156 292.37305 L 9.3925781 292.37305 z M 11.488281 292.37305 A 0.26209056 0.26209056 0 0 0 11.226562 292.63477 A 0.26209056 0.26209056 0 0 0 11.488281 292.89648 L 12.013672 292.89648 A 0.26209056 0.26209056 0 0 0 12.275391 292.63477 A 0.26209056 0.26209056 0 0 0 12.013672 292.37305 L 11.488281 292.37305 z M 13.585938 292.37305 A 0.26209056 0.26209056 0 0 0 13.324219 292.63477 A 0.26209056 0.26209056 0 0 0 13.585938 292.89648 L 14.109375 292.89648 A 0.26209056 0.26209056 0 0 0 14.373047 292.63477 A 0.26209056 0.26209056 0 0 0 14.109375 292.37305 L 13.585938 292.37305 z M 15.681641 292.37305 A 0.26209056 0.26209056 0 0 0 15.419922 292.63477 A 0.26209056 0.26209056 0 0 0 15.681641 292.89648 L 16.207031 292.89648 A 0.26209056 0.26209056 0 0 0 16.46875 292.63477 A 0.26209056 0.26209056 0 0 0 16.207031 292.37305 L 15.681641 292.37305 z "
         id="path944" />
      <path
         style="color:#000000;font-style:normal;font-variant:normal;font-weight:normal;font-stretch:normal;font-size:medium;line-height:normal;font-family:sans-serif;font-variant-ligatures:normal;font-variant-position:normal;font-variant-caps:normal;font-variant-numeric:normal;font-variant-alternates:normal;font-variant-east-asian:normal;font-feature-settings:normal;font-variation-settings:normal;text-indent:0;text-align:start;text-decoration:none;text-decoration-line:none;text-decoration-style:solid;text-decoration-color:#000000;letter-spacing:normal;word-spacing:normal;text-transform:none;writing-mode:lr-tb;direction:ltr;text-orientation:mixed;dominant-baseline:auto;baseline-shift:baseline;text-anchor:start;white-space:normal;shape-padding:0;shape-margin:0;inline-size:0;clip-rule:nonzero;display:inline;overflow:visible;visibility:visible;isolation:auto;mix-blend-mode:normal;color-interpolation:sRGB;color-interpolation-filters:linearRGB;solid-color:#000000;solid-opacity:1;vector-effect:none;fill:#fff6d5;fill-opacity:1;fill-rule:nonzero;stroke:none;stroke-width:0.524181;stroke-linecap:round;stroke-linejoin:bevel;stroke-miterlimit:4;stroke-dasharray:0.524181, 1.57254000000000005;stroke-dashoffset:0;stroke-opacity:1.0;paint-order:stroke fill markers;color-rendering:auto;image-rendering:auto;shape-rendering:auto;text-rendering:auto;enable-background:accumulate;stop-color:#000000;stop-opacity:1;"
         d="M 0.26458332,288.53333 H 16.668749 v 4.10104 H 0.26458332 Z"
         id="path946" />
    </g>
    <rect
       style="fill:#cdde87;fill-opacity:1;stroke:#445500;stroke-width:0.52916664;stroke-linecap:round;stroke-linejoin:bevel;stroke-miterlimit:4;stroke-dasharray:none;stroke-opacity:1"
       id="rect3717"
       width="16.404165"
       height="4.101037"
       x="0.26458332"
       y="292.63437" />
    <g
       id="rect4524"
       style="opacity:1">
      <path
         style="color:#000000;font-style:normal;font-variant:normal;font-weight:normal;font-stretch:normal;font-size:medium;line-height:normal;font-family:sans-serif;font-variant-ligatures:normal;font-variant-position:normal;font-variant-caps:normal;font-variant-numeric:normal;font-variant-alternates:normal;font-variant-east-asian:normal;font-feature-settings:normal;font-variation-settings:normal;text-indent:0;text-align:start;text-decoration:none;text-decoration-line:none;text-decoration-style:solid;text-decoration-color:#000000;letter-spacing:normal;word-spacing:normal;text-transform:none;writing-mode:lr-tb;direction:ltr;text-orientation:mixed;dominant-baseline:auto;baseline-shift:baseline;text-anchor:start;white-space:normal;shape-padding:0;shape-margin:0;inline-size:0;clip-rule:nonzero;display:inline;overflow:visible;visibility:visible;isolation:auto;mix-blend-mode:normal;color-interpolation:sRGB;color-interpolation-filters:linearRGB;solid-color:#000000;solid-opacity:1;vector-effect:none;fill:#aa8800;fill-opacity:1;fill-rule:nonzero;stroke:none;stroke-linecap:round;stroke-linejoin:bevel;stroke-miterlimit:4;stroke-dasharray:0.529167, 1.58749999999999991;stroke-dashoffset:0;stroke-opacity:1.0;paint-order:stroke fill markers;color-rendering:auto;image-rendering:auto;shape-rendering:auto;text-rendering:auto;enable-background:accumulate;stop-color:#000000;stop-opacity:1;"
         d="M 0.26367188 280.06641 A 0.26458332 0.26458332 0 0 0 0 280.33203 A 0.26458332 0.26458332 0 0 0 0.037109375 280.46289 A 0.26458332 0.26458332 0 0 0 0 280.5957 L 0 281.125 A 0.26458332 0.26458332 0 0 0 0.26367188 281.38867 A 0.26458332 0.26458332 0 0 0 0.52929688 281.125 L 0.52929688 280.5957 L 0.79296875 280.5957 A 0.26458332 0.26458332 0 0 0 1.0585938 280.33203 A 0.26458332 0.26458332 0 0 0 0.79296875 280.06641 L 0.26367188 280.06641 z M 2.3808594 280.06641 A 0.26458332 0.26458332 0 0 0 2.1171875 280.33203 A 0.26458332 0.26458332 0 0 0 2.3808594 280.5957 L 2.9101562 280.5957 A 0.26458332 0.26458332 0 0 0 3.1757812 280.33203 A 0.26458332 0.26458332 0 0 0 2.9101562 280.06641 L 2.3808594 280.06641 z M 4.4980469 280.06641 A 0.26458332 0.26458332 0 0 0 4.2324219 280.33203 A 0.26458332 0.26458332 0 0 0 4.4980469 280.5957 L 5.0273438 280.5957 A 0.26458332 0.26458332 0 0 0 5.2910156 280.33203 A 0.26458332 0.26458332 0 0 0 5.0273438 280.06641 L 4.4980469 280.06641 z M 6.6152344 280.06641 A 0.26458332 0.26458332 0 0 0 6.3496094 280.33203 A 0.26458332 0.26458332 0 0 0 6.6152344 280.5957 L 7.1445312 280.5957 A 0.26458332 0.26458332 0 0 0 7.4082031 280.33203 A 0.26458332 0.26458332 0 0 0 7.1445312 280.06641 L 6.6152344 280.06641 z M 8.7304688 280.06641 A 0.26458332 0.26458332 0 0 0 8.4667969 280.33203 A 0.26458332 0.26458332 0 0 0 8.7304688 280.5957 L 9.2597656 280.5957 A 0.26458332 0.26458332 0 0 0 9.5253906 280.33203 A 0.26458332 0.26458332 0 0 0 9.2597656 280.06641 L 8.7304688 280.06641 z M 10.847656 280.06641 A 0.26458332 0.26458332 0 0 0 10.583984 280.33203 A 0.26458332 0.26458332 0 0 0 10.847656 280.5957 L 11.376953 280.5957 A 0.26458332 0.26458332 0 0 0 11.642578 280.33203 A 0.26458332 0.26458332 0 0 0 11.376953 280.06641 L 10.847656 280.06641 z M 12.964844 280.06641 A 0.26458332 0.26458332 0 0 0 12.699219 280.33203 A 0.26458332 0.26458332 0 0 0 12.964844 280.5957 L 13.494141 280.5957 A 0.26458332 0.26458332 0 0 0 13.757812 280.33203 A 0.26458332 0.26458332 0 0 0 13.494141 280.06641 L 12.964844 280.06641 z M 15.082031 280.06641 A 0.26458332 0.26458332 0 0 0 14.816406 280.33203 A 0.26458332 0.26458332 0 0 0 15.082031 280.5957 L 15.611328 280.5957 A 0.26458332 0.26458332 0 0 0 15.875 280.33203 A 0.26458332 0.26458332 0 0 0 15.611328 280.06641 L 15.082031 280.06641 z M 16.667969 280.5957 A 0.26458332 0.26458332 0 0 0 16.404297 280.86133 L 16.404297 281.38867 A 0.26458332 0.26458332 0 0 0 16.667969 281.6543 A 0.26458332 0.26458332 0 0 0 16.933594 281.38867 L 16.933594 280.86133 A 0.26458332 0.26458332 0 0 0 16.667969 280.5957 z M 0.26367188 282.44727 A 0.26458332 0.26458332 0 0 0 0 282.71289 L 0 283.24219 A 0.26458332 0.26458332 0 0 0 0.26367188 283.50586 A 0.26458332 0.26458332 0 0 0 0.52929688 283.24219 L 0.52929688 282.71289 A 0.26458332 0.26458332 0 0 0 0.26367188 282.44727 z M 16.667969 282.71289 A 0.26458332 0.26458332 0 0 0 16.404297 282.97656 L 16.404297 283.50586 A 0.26458332 0.26458332 0 0 0 16.667969 283.77148 A 0.26458332 0.26458332 0 0 0 16.933594 283.50586 L 16.933594 282.97656 A 0.26458332 0.26458332 0 0 0 16.667969 282.71289 z M 0.66210938 284.16797 A 0.26458332 0.26458332 0 0 0 0.39648438 284.43164 A 0.26458332 0.26458332 0 0 0 0.66210938 284.69727 L 1.1914062 284.69727 A 0.26458332 0.26458332 0 0 0 1.4550781 284.43164 A 0.26458332 0.26458332 0 0 0 1.1914062 284.16797 L 0.66210938 284.16797 z M 2.7773438 284.16797 A 0.26458332 0.26458332 0 0 0 2.5136719 284.43164 A 0.26458332 0.26458332 0 0 0 2.7773438 284.69727 L 3.3066406 284.69727 A 0.26458332 0.26458332 0 0 0 3.5722656 284.43164 A 0.26458332 0.26458332 0 0 0 3.3066406 284.16797 L 2.7773438 284.16797 z M 4.8945312 284.16797 A 0.26458332 0.26458332 0 0 0 4.6308594 284.43164 A 0.26458332 0.26458332 0 0 0 4.8945312 284.69727 L 5.4238281 284.69727 A 0.26458332 0.26458332 0 0 0 5.6894531 284.43164 A 0.26458332 0.26458332 0 0 0 5.4238281 284.16797 L 4.8945312 284.16797 z M 7.0117188 284.16797 A 0.26458332 0.26458332 0 0 0 6.7460938 284.43164 A 0.26458332 0.26458332 0 0 0 7.0117188 284.69727 L 7.5410156 284.69727 A 0.26458332 0.26458332 0 0 0 7.8046875 284.43164 A 0.26458332 0.26458332 0 0 0 7.5410156 284.16797 L 7.0117188 284.16797 z M 9.1289062 284.16797 A 0.26458332 0.26458332 0 0 0 8.8632812 284.43164 A 0.26458332 0.26458332 0 0 0 9.1289062 284.69727 L 9.6582031 284.69727 A 0.26458332 0.26458332 0 0 0 9.921875 284.43164 A 0.26458332 0.26458332 0 0 0 9.6582031 284.16797 L 9.1289062 284.16797 z M 11.244141 284.16797 A 0.26458332 0.26458332 0 0 0 10.980469 284.43164 A 0.26458332 0.26458332 0 0 0 11.244141 284.69727 L 11.773438 284.69727 A 0.26458332 0.26458332 0 0 0 12.039062 284.43164 A 0.26458332 0.26458332 0 0 0 11.773438 284.16797 L 11.244141 284.16797 z M 13.361328 284.16797 A 0.26458332 0.26458332 0 0 0 13.097656 284.43164 A 0.26458332 0.26458332 0 0 0 13.361328 284.69727 L 13.890625 284.69727 A 0.26458332 0.26458332 0 0 0 14.154297 284.43164 A 0.26458332 0.26458332 0 0 0 13.890625 284.16797 L 13.361328 284.16797 z M 15.478516 284.16797 A 0.26458332 0.26458332 0 0 0 15.212891 284.43164 A 0.26458332 0.26458332 0 0 0 15.478516 284.69727 L 16.007812 284.69727 A 0.26458332 0.26458332 0 0 0 16.271484 284.43164 A 0.26458332 0.26458332 0 0 0 16.007812 284.16797 L 15.478516 284.16797 z "
         id="path962" />
      <path
         style="color:#000000;font-style:normal;font-variant:normal;font-weight:normal;font-stretch:normal;font-size:medium;line-height:normal;font-family:sans-serif;font-variant-ligatures:normal;font-variant-position:normal;font-variant-caps:normal;font-variant-numeric:normal;font-variant-alternates:normal;font-variant-east-asian:normal;font-feature-settings:normal;font-variation-settings:normal;text-indent:0;text-align:start;text-decoration:none;text-decoration-line:none;text-decoration-style:solid;text-decoration-color:#000000;letter-spacing:normal;word-spacing:normal;text-transform:none;writing-mode:lr-tb;direction:ltr;text-orientation:mixed;dominant-baseline:auto;baseline-shift:baseline;text-anchor:start;white-space:normal;shape-padding:0;shape-margin:0;inline-size:0;clip-rule:nonzero;display:inline;overflow:visible;visibility:visible;isolation:auto;mix-blend-mode:normal;color-interpolation:sRGB;color-interpolation-filters:linearRGB;solid-color:#000000;solid-opacity:1;vector-effect:none;fill:#fff6d5;fill-opacity:1;fill-rule:nonzero;stroke:none;stroke-width:0.529167;stroke-linecap:round;stroke-linejoin:bevel;stroke-miterlimit:4;stroke-dasharray:0.529167, 1.58749999999999991;stroke-dashoffset:0;stroke-opacity:1.0;paint-order:stroke fill markers;color-rendering:auto;image-rendering:auto;shape-rendering:auto;text-rendering:auto;enable-background:accumulate;stop-color:#000000;stop-opacity:1;"
         d="M 0.26458332,280.33127 H 16.668749 v 4.10104 H 0.26458332 Z"
         id="path964" />
    </g>
    <g
       id="rect4526"
       style="opacity:1">
      <path
         style="color:#000000;font-style:normal;font-variant:normal;font-weight:normal;font-stretch:normal;font-size:medium;line-height:normal;font-family:sans-serif;font-variant-ligatures:normal;font-variant-position:normal;font-variant-caps:normal;font-variant-numeric:normal;font-variant-alternates:normal;font-variant-east-asian:normal;font-feature-settings:normal;font-variation-settings:normal;text-indent:0;text-align:start;text-decoration:none;text-decoration-line:none;text-decoration-style:solid;text-decoration-color:#000000;letter-spacing:normal;word-spacing:normal;text-transform:none;writing-mode:lr-tb;direction:ltr;text-orientation:mixed;dominant-baseline:auto;baseline-shift:baseline;text-anchor:start;white-space:normal;shape-padding:0;shape-margin:0;inline-size:0;clip-rule:nonzero;display:inline;overflow:visible;visibility:visible;isolation:auto;mix-blend-mode:normal;color-interpolation:sRGB;color-interpolation-filters:linearRGB;solid-color:#000000;solid-opacity:1;vector-effect:none;fill:#aa8800;fill-opacity:1;fill-rule:nonzero;stroke:none;stroke-linecap:round;stroke-linejoin:bevel;stroke-miterlimit:4;stroke-dasharray:0.529167, 1.58749999999999991;stroke-dashoffset:0;stroke-opacity:1.0;paint-order:stroke markers fill;color-rendering:auto;image-rendering:auto;shape-rendering:auto;text-rendering:auto;enable-background:accumulate;stop-color:#000000;stop-opacity:1;"
         d="M 0.26367188 284.16797 A 0.26458332 0.26458332 0 0 0 0 284.43164 A 0.26458332 0.26458332 0 0 0 0.037109375 284.56445 A 0.26458332 0.26458332 0 0 0 0 284.69727 L 0 285.22656 A 0.26458332 0.26458332 0 0 0 0.26367188 285.49023 A 0.26458332 0.26458332 0 0 0 0.52929688 285.22656 L 0.52929688 284.69727 L 0.79296875 284.69727 A 0.26458332 0.26458332 0 0 0 1.0585938 284.43164 A 0.26458332 0.26458332 0 0 0 0.79296875 284.16797 L 0.26367188 284.16797 z M 2.3808594 284.16797 A 0.26458332 0.26458332 0 0 0 2.1171875 284.43164 A 0.26458332 0.26458332 0 0 0 2.3808594 284.69727 L 2.9101562 284.69727 A 0.26458332 0.26458332 0 0 0 3.1757812 284.43164 A 0.26458332 0.26458332 0 0 0 2.9101562 284.16797 L 2.3808594 284.16797 z M 4.4980469 284.16797 A 0.26458332 0.26458332 0 0 0 4.2324219 284.43164 A 0.26458332 0.26458332 0 0 0 4.4980469 284.69727 L 5.0273438 284.69727 A 0.26458332 0.26458332 0 0 0 5.2910156 284.43164 A 0.26458332 0.26458332 0 0 0 5.0273438 284.16797 L 4.4980469 284.16797 z M 6.6152344 284.16797 A 0.26458332 0.26458332 0 0 0 6.3496094 284.43164 A 0.26458332 0.26458332 0 0 0 6.6152344 284.69727 L 7.1445312 284.69727 A 0.26458332 0.26458332 0 0 0 7.4082031 284.43164 A 0.26458332 0.26458332 0 0 0 7.1445312 284.16797 L 6.6152344 284.16797 z M 8.7304688 284.16797 A 0.26458332 0.26458332 0 0 0 8.4667969 284.43164 A 0.26458332 0.26458332 0 0 0 8.7304688 284.69727 L 9.2597656 284.69727 A 0.26458332 0.26458332 0 0 0 9.5253906 284.43164 A 0.26458332 0.26458332 0 0 0 9.2597656 284.16797 L 8.7304688 284.16797 z M 10.847656 284.16797 A 0.26458332 0.26458332 0 0 0 10.583984 284.43164 A 0.26458332 0.26458332 0 0 0 10.847656 284.69727 L 11.376953 284.69727 A 0.26458332 0.26458332 0 0 0 11.642578 284.43164 A 0.26458332 0.26458332 0 0 0 11.376953 284.16797 L 10.847656 284.16797 z M 12.964844 284.16797 A 0.26458332 0.26458332 0 0 0 12.699219 284.43164 A 0.26458332 0.26458332 0 0 0 12.964844 284.69727 L 13.494141 284.69727 A 0.26458332 0.26458332 0 0 0 13.757812 284.43164 A 0.26458332 0.26458332 0 0 0 13.494141 284.16797 L 12.964844 284.16797 z M 15.082031 284.16797 A 0.26458332 0.26458332 0 0 0 14.816406 284.43164 A 0.26458332 0.26458332 0 0 0 15.082031 284.69727 L 15.611328 284.69727 A 0.26458332 0.26458332 0 0 0 15.875 284.43164 A 0.26458332 0.26458332 0 0 0 15.611328 284.16797 L 15.082031 284.16797 z M 16.667969 284.69727 A 0.26458332 0.26458332 0 0 0 16.404297 284.96094 L 16.404297 285.49023 A 0.26458332 0.26458332 0 0 0 16.667969 285.75586 A 0.26458332 0.26458332 0 0 0 16.933594 285.49023 L 16.933594 284.96094 A 0.26458332 0.26458332 0 0 0 16.667969 284.69727 z M 0.26367188 286.54883 A 0.26458332 0.26458332 0 0 0 0 286.81445 L 0 287.3418 A 0.26458332 0.26458332 0 0 0 0.26367188 287.60742 A 0.26458332 0.26458332 0 0 0 0.52929688 287.3418 L 0.52929688 286.81445 A 0.26458332 0.26458332 0 0 0 0.26367188 286.54883 z M 16.667969 286.81445 A 0.26458332 0.26458332 0 0 0 16.404297 287.07812 L 16.404297 287.60742 A 0.26458332 0.26458332 0 0 0 16.667969 287.87109 A 0.26458332 0.26458332 0 0 0 16.933594 287.60742 L 16.933594 287.07812 A 0.26458332 0.26458332 0 0 0 16.667969 286.81445 z M 0.66210938 288.26953 A 0.26458332 0.26458332 0 0 0 0.39648438 288.5332 A 0.26458332 0.26458332 0 0 0 0.66210938 288.79883 L 1.1914062 288.79883 A 0.26458332 0.26458332 0 0 0 1.4550781 288.5332 A 0.26458332 0.26458332 0 0 0 1.1914062 288.26953 L 0.66210938 288.26953 z M 2.7773438 288.26953 A 0.26458332 0.26458332 0 0 0 2.5136719 288.5332 A 0.26458332 0.26458332 0 0 0 2.7773438 288.79883 L 3.3066406 288.79883 A 0.26458332 0.26458332 0 0 0 3.5722656 288.5332 A 0.26458332 0.26458332 0 0 0 3.3066406 288.26953 L 2.7773438 288.26953 z M 4.8945312 288.26953 A 0.26458332 0.26458332 0 0 0 4.6308594 288.5332 A 0.26458332 0.26458332 0 0 0 4.8945312 288.79883 L 5.4238281 288.79883 A 0.26458332 0.26458332 0 0 0 5.6894531 288.5332 A 0.26458332 0.26458332 0 0 0 5.4238281 288.26953 L 4.8945312 288.26953 z M 7.0117188 288.26953 A 0.26458332 0.26458332 0 0 0 6.7460938 288.5332 A 0.26458332 0.26458332 0 0 0 7.0117188 288.79883 L 7.5410156 288.79883 A 0.26458332 0.26458332 0 0 0 7.8046875 288.5332 A 0.26458332 0.26458332 0 0 0 7.5410156 288.26953 L 7.0117188 288.26953 z M 9.1289062 288.26953 A 0.26458332 0.26458332 0 0 0 8.8632812 288.5332 A 0.26458332 0.26458332 0 0 0 9.1289062 288.79883 L 9.6582031 288.79883 A 0.26458332 0.26458332 0 0 0 9.921875 288.5332 A 0.26458332 0.26458332 0 0 0 9.6582031 288.26953 L 9.1289062 288.26953 z M 11.244141 288.26953 A 0.26458332 0.26458332 0 0 0 10.980469 288.5332 A 0.26458332 0.26458332 0 0 0 11.244141 288.79883 L 11.773438 288.79883 A 0.26458332 0.26458332 0 0 0 12.039062 288.5332 A 0.26458332 0.26458332 0 0 0 11.773438 288.26953 L 11.244141 288.26953 z M 13.361328 288.26953 A 0.26458332 0.26458332 0 0 0 13.097656 288.5332 A 0.26458332 0.26458332 0 0 0 13.361328 288.79883 L 13.890625 288.79883 A 0.26458332 0.26458332 0 0 0 14.154297 288.5332 A 0.26458332 0.26458332 0 0 0 13.890625 288.26953 L 13.361328 288.26953 z M 15.478516 288.26953 A 0.26458332 0.26458332 0 0 0 15.212891 288.5332 A 0.26458332 0.26458332 0 0 0 15.478516 288.79883 L 16.007812 288.79883 A 0.26458332 0.26458332 0 0 0 16.271484 288.5332 A 0.26458332 0.26458332 0 0 0 16.007812 288.26953 L 15.478516 288.26953 z "
         id="path980" />
      <path
         style="color:#000000;font-style:normal;font-variant:normal;font-weight:normal;font-stretch:normal;font-size:medium;line-height:normal;font-family:sans-serif;font-variant-ligatures:normal;font-variant-position:normal;font-variant-caps:normal;font-variant-numeric:normal;font-variant-alternates:normal;font-variant-east-asian:normal;font-feature-settings:normal;font-variation-settings:normal;text-indent:0;text-align:start;text-decoration:none;text-decoration-line:none;text-decoration-style:solid;text-decoration-color:#000000;letter-spacing:normal;word-spacing:normal;text-transform:none;writing-mode:lr-tb;direction:ltr;text-orientation:mixed;dominant-baseline:auto;baseline-shift:baseline;text-anchor:start;white-space:normal;shape-padding:0;shape-margin:0;inline-size:0;clip-rule:nonzero;display:inline;overflow:visible;visibility:visible;isolation:auto;mix-blend-mode:normal;color-interpolation:sRGB;color-interpolation-filters:linearRGB;solid-color:#000000;solid-opacity:1;vector-effect:none;fill:#ffeeaa;fill-opacity:1;fill-rule:nonzero;stroke:none;stroke-width:0.529167;stroke-linecap:round;stroke-linejoin:bevel;stroke-miterlimit:4;stroke-dasharray:0.529167, 1.58749999999999991;stroke-dashoffset:0;stroke-opacity:1.0;paint-order:stroke markers fill;color-rendering:auto;image-rendering:auto;shape-rendering:auto;text-rendering:auto;enable-background:accumulate;stop-color:#000000;stop-opacity:1;"
         d="M 0.26458365,284.43234 H 16.668749 v 4.10104 H 0.26458365 Z"
         id="path982" />
    </g>
    <path
       inkscape:connector-curvature="0"
       style="opacity:0.5;fill:url(#linearGradient3145);fill-opacity:1;stroke:none;stroke-width:0.36464739;stroke-linecap:round;stroke-linejoin:bevel;stroke-miterlimit:4;stroke-dasharray:none;stroke-opacity:1"
       d="m 0.4598724,292.8297 v 3.71045 h 0.53378612 v -3.17667 H 16.473459 v -0.53378 z"
       id="rect3717-1"
       sodipodi:nodetypes="ccccccc" />
    <g
       id="path830"
       style="opacity:0.1">
      <path
         style="color:#000000;font-style:normal;font-variant:normal;font-weight:normal;font-stretch:normal;font-size:medium;line-height:normal;font-family:sans-serif;font-variant-ligatures:normal;font-variant-position:normal;font-variant-caps:normal;font-variant-numeric:normal;font-variant-alternates:normal;font-variant-east-asian:normal;font-feature-settings:normal;font-variation-settings:normal;text-indent:0;text-align:start;text-decoration:none;text-decoration-line:none;text-decoration-style:solid;text-decoration-color:#000000;letter-spacing:normal;word-spacing:normal;text-transform:none;writing-mode:lr-tb;direction:ltr;text-orientation:mixed;dominant-baseline:auto;baseline-shift:baseline;text-anchor:start;white-space:normal;shape-padding:0;shape-margin:0;inline-size:0;clip-rule:nonzero;display:inline;overflow:visible;visibility:visible;isolation:auto;mix-blend-mode:normal;color-interpolation:sRGB;color-interpolation-filters:linearRGB;solid-color:#000000;solid-opacity:1;vector-effect:none;fill:#4d4d4d;fill-opacity:1;fill-rule:nonzero;stroke:none;stroke-width:0.427002;stroke-linecap:round;stroke-linejoin:round;stroke-miterlimit:4;stroke-dasharray:none;stroke-dashoffset:0;stroke-opacity:1.0;color-rendering:auto;image-rendering:auto;shape-rendering:auto;text-rendering:auto;enable-background:accumulate;stop-color:#000000;stop-opacity:1;"
         d="m 8.0760908,282.38179 v 8.88561"
         id="path1008" />
      <path
         style="color:#000000;font-style:normal;font-variant:normal;font-weight:normal;font-stretch:normal;font-size:medium;line-height:normal;font-family:sans-serif;font-variant-ligatures:normal;font-variant-position:normal;font-variant-caps:normal;font-variant-numeric:normal;font-variant-alternates:normal;font-variant-east-asian:normal;font-feature-settings:normal;font-variation-settings:normal;text-indent:0;text-align:start;text-decoration:none;text-decoration-line:none;text-decoration-style:solid;text-decoration-color:#000000;letter-spacing:normal;word-spacing:normal;text-transform:none;writing-mode:lr-tb;direction:ltr;text-orientation:mixed;dominant-baseline:auto;baseline-shift:baseline;text-anchor:start;white-space:normal;shape-padding:0;shape-margin:0;inline-size:0;clip-rule:nonzero;display:inline;overflow:visible;visibility:visible;isolation:auto;mix-blend-mode:normal;color-interpolation:sRGB;color-interpolation-filters:linearRGB;solid-color:#000000;solid-opacity:1;vector-effect:none;fill:#4d4d4d;fill-opacity:1;fill-rule:nonzero;stroke:none;stroke-linecap:round;stroke-linejoin:round;stroke-miterlimit:4;stroke-dasharray:none;stroke-dashoffset:0;stroke-opacity:1.0;color-rendering:auto;image-rendering:auto;shape-rendering:auto;text-rendering:auto;enable-background:accumulate;stop-color:#000000;stop-opacity:1;"
         d="M 8.0761719 282.16797 A 0.21350107 0.21350107 0 0 0 7.8632812 282.38086 L 7.8632812 291.26758 A 0.21350107 0.21350107 0 0 0 8.0761719 291.48047 A 0.21350107 0.21350107 0 0 0 8.2890625 291.26758 L 8.2890625 282.38086 A 0.21350107 0.21350107 0 0 0 8.0761719 282.16797 z "
         id="path1010" />
      <g
         id="g998">
        <g
           id="path1000"
           style="opacity:1">
          <path
             style="color:#000000;font-style:normal;font-variant:normal;font-weight:normal;font-stretch:normal;font-size:medium;line-height:normal;font-family:sans-serif;font-variant-ligatures:normal;font-variant-position:normal;font-variant-caps:normal;font-variant-numeric:normal;font-variant-alternates:normal;font-variant-east-asian:normal;font-feature-settings:normal;font-variation-settings:normal;text-indent:0;text-align:start;text-decoration:none;text-decoration-line:none;text-decoration-style:solid;text-decoration-color:#000000;letter-spacing:normal;word-spacing:normal;text-transform:none;writing-mode:lr-tb;direction:ltr;text-orientation:mixed;dominant-baseline:auto;baseline-shift:baseline;text-anchor:start;white-space:normal;shape-padding:0;shape-margin:0;inline-size:0;clip-rule:nonzero;display:inline;overflow:visible;visibility:visible;isolation:auto;mix-blend-mode:normal;color-interpolation:sRGB;color-interpolation-filters:linearRGB;solid-color:#000000;solid-opacity:1;vector-effect:none;fill:#4d4d4d;fill-opacity:1;fill-rule:evenodd;stroke:none;stroke-width:0.341602pt;stroke-linecap:butt;stroke-linejoin:miter;stroke-miterlimit:4;stroke-dasharray:none;stroke-dashoffset:0;stroke-opacity:1.0;color-rendering:auto;image-rendering:auto;shape-rendering:auto;text-rendering:auto;enable-background:accumulate;stop-color:#000000;stop-opacity:1;"
             d="m 8.0760908,293.23844 -1.7080085,-2.95485 h 3.416017 z"
             id="path1004" />
          <path
             style="color:#000000;font-style:normal;font-variant:normal;font-weight:normal;font-stretch:normal;font-size:medium;line-height:normal;font-family:sans-serif;font-variant-ligatures:normal;font-variant-position:normal;font-variant-caps:normal;font-variant-numeric:normal;font-variant-alternates:normal;font-variant-east-asian:normal;font-feature-settings:normal;font-variation-settings:normal;text-indent:0;text-align:start;text-decoration:none;text-decoration-line:none;text-decoration-style:solid;text-decoration-color:#000000;letter-spacing:normal;word-spacing:normal;text-transform:none;writing-mode:lr-tb;direction:ltr;text-orientation:mixed;dominant-baseline:auto;baseline-shift:baseline;text-anchor:start;white-space:normal;shape-padding:0;shape-margin:0;inline-size:0;clip-rule:nonzero;display:inline;overflow:visible;visibility:visible;isolation:auto;mix-blend-mode:normal;color-interpolation:sRGB;color-interpolation-filters:linearRGB;solid-color:#000000;solid-opacity:1;vector-effect:none;fill:#4d4d4d;fill-opacity:1;fill-rule:evenodd;stroke:none;stroke-linecap:butt;stroke-linejoin:miter;stroke-miterlimit:4;stroke-dasharray:none;stroke-dashoffset:0;stroke-opacity:1.0;color-rendering:auto;image-rendering:auto;shape-rendering:auto;text-rendering:auto;enable-background:accumulate;stop-color:#000000;stop-opacity:1;"
             d="M 5.9726562 290.05664 L 8.0761719 293.69336 L 8.2734375 293.35156 L 10.179688 290.05664 L 5.9726562 290.05664 z M 6.7617188 290.51172 L 9.390625 290.51172 L 8.0761719 292.7832 L 6.7617188 290.51172 z "
             id="path1006" />
        </g>
      </g>
    </g>
    <g
       id="path4534"
       style="opacity:1">
      <path
         style="color:#000000;font-style:normal;font-variant:normal;font-weight:normal;font-stretch:normal;font-size:medium;line-height:normal;font-family:sans-serif;font-variant-ligatures:normal;font-variant-position:normal;font-variant-caps:normal;font-variant-numeric:normal;font-variant-alternates:normal;font-variant-east-asian:normal;font-feature-settings:normal;font-variation-settings:normal;text-indent:0;text-align:start;text-decoration:none;text-decoration-line:none;text-decoration-style:solid;text-decoration-color:#000000;letter-spacing:normal;word-spacing:normal;text-transform:none;writing-mode:lr-tb;direction:ltr;text-orientation:mixed;dominant-baseline:auto;baseline-shift:baseline;text-anchor:start;white-space:normal;shape-padding:0;shape-margin:0;inline-size:0;clip-rule:nonzero;display:inline;overflow:visible;visibility:visible;isolation:auto;mix-blend-mode:normal;color-interpolation:sRGB;color-interpolation-filters:linearRGB;solid-color:#000000;solid-opacity:1;vector-effect:none;fill:#4d4d4d;fill-opacity:1;fill-rule:nonzero;stroke:none;stroke-linecap:round;stroke-linejoin:bevel;stroke-miterlimit:4;stroke-dasharray:none;stroke-dashoffset:0;stroke-opacity:1.0;paint-order:stroke markers fill;color-rendering:auto;image-rendering:auto;shape-rendering:auto;text-rendering:auto;enable-background:accumulate;stop-color:#000000;stop-opacity:1;"
         d="M 8.4667969 281.92578 A 0.39687499 0.39687499 0 0 0 8.0703125 282.32227 L 8.0703125 289.88867 A 0.39687499 0.39687499 0 0 0 8.4667969 290.28711 A 0.39687499 0.39687499 0 0 0 8.8632812 289.88867 L 8.8632812 282.32227 A 0.39687499 0.39687499 0 0 0 8.4667969 281.92578 z "
         id="path908" />
      <g
         id="g898">
        <g
           id="path900"
           style="opacity:1">
          <path
             style="color:#000000;font-style:normal;font-variant:normal;font-weight:normal;font-stretch:normal;font-size:medium;line-height:normal;font-family:sans-serif;font-variant-ligatures:normal;font-variant-position:normal;font-variant-caps:normal;font-variant-numeric:normal;font-variant-alternates:normal;font-variant-east-asian:normal;font-feature-settings:normal;font-variation-settings:normal;text-indent:0;text-align:start;text-decoration:none;text-decoration-line:none;text-decoration-style:solid;text-decoration-color:#000000;letter-spacing:normal;word-spacing:normal;text-transform:none;writing-mode:lr-tb;direction:ltr;text-orientation:mixed;dominant-baseline:auto;baseline-shift:baseline;text-anchor:start;white-space:normal;shape-padding:0;shape-margin:0;inline-size:0;clip-rule:nonzero;display:inline;overflow:visible;visibility:visible;isolation:auto;mix-blend-mode:normal;color-interpolation:sRGB;color-interpolation-filters:linearRGB;solid-color:#000000;solid-opacity:1;vector-effect:none;fill:#4d4d4d;fill-opacity:1;fill-rule:evenodd;stroke:none;stroke-width:0.635pt;stroke-linecap:butt;stroke-linejoin:miter;stroke-miterlimit:4;stroke-dasharray:none;stroke-dashoffset:0;stroke-opacity:1.0;color-rendering:auto;image-rendering:auto;shape-rendering:auto;text-rendering:auto;enable-background:accumulate;stop-color:#000000;stop-opacity:1;"
             d="m 8.4666629,293.55349 -3.175,-5.49275 h 6.3500001 z"
             id="path904" />
          <path
             style="color:#000000;font-style:normal;font-variant:normal;font-weight:normal;font-stretch:normal;font-size:medium;line-height:normal;font-family:sans-serif;font-variant-ligatures:normal;font-variant-position:normal;font-variant-caps:normal;font-variant-numeric:normal;font-variant-alternates:normal;font-variant-east-asian:normal;font-feature-settings:normal;font-variation-settings:normal;text-indent:0;text-align:start;text-decoration:none;text-decoration-line:none;text-decoration-style:solid;text-decoration-color:#000000;letter-spacing:normal;word-spacing:normal;text-transform:none;writing-mode:lr-tb;direction:ltr;text-orientation:mixed;dominant-baseline:auto;baseline-shift:baseline;text-anchor:start;white-space:normal;shape-padding:0;shape-margin:0;inline-size:0;clip-rule:nonzero;display:inline;overflow:visible;visibility:visible;isolation:auto;mix-blend-mode:normal;color-interpolation:sRGB;color-interpolation-filters:linearRGB;solid-color:#000000;solid-opacity:1;vector-effect:none;fill:#4d4d4d;fill-opacity:1;fill-rule:evenodd;stroke:none;stroke-linecap:butt;stroke-linejoin:miter;stroke-miterlimit:4;stroke-dasharray:none;stroke-dashoffset:0;stroke-opacity:1.0;color-rendering:auto;image-rendering:auto;shape-rendering:auto;text-rendering:auto;enable-background:accumulate;stop-color:#000000;stop-opacity:1;"
             d="M 4.5585938 287.63672 L 8.4667969 294.39844 L 8.8339844 293.76562 L 12.375 287.63672 L 4.5585938 287.63672 z M 6.0253906 288.48438 L 10.908203 288.48438 L 8.4667969 292.70703 L 6.0253906 288.48438 z "
             id="path906" />
        </g>
      </g>
      <path
         style="color:#000000;font-style:normal;font-variant:normal;font-weight:normal;font-stretch:normal;font-size:medium;line-height:normal;font-family:sans-serif;font-variant-ligatures:normal;font-variant-position:normal;font-variant-caps:normal;font-variant-numeric:normal;font-variant-alternates:normal;font-variant-east-asian:normal;font-feature-settings:normal;font-variation-settings:normal;text-indent:0;text-align:start;text-decoration:none;text-decoration-line:none;text-decoration-style:solid;text-decoration-color:#000000;letter-spacing:normal;word-spacing:normal;text-transform:none;writing-mode:lr-tb;direction:ltr;text-orientation:mixed;dominant-baseline:auto;baseline-shift:baseline;text-anchor:start;white-space:normal;shape-padding:0;shape-margin:0;inline-size:0;clip-rule:nonzero;display:inline;overflow:visible;visibility:visible;isolation:auto;mix-blend-mode:normal;color-interpolation:sRGB;color-interpolation-filters:linearRGB;solid-color:#000000;solid-opacity:1;vector-effect:none;fill:#4d4d4d;fill-opacity:1;fill-rule:nonzero;stroke:none;stroke-width:0.79375;stroke-linecap:round;stroke-linejoin:bevel;stroke-miterlimit:4;stroke-dasharray:none;stroke-dashoffset:0;stroke-opacity:1.0;paint-order:stroke markers fill;color-rendering:auto;image-rendering:auto;shape-rendering:auto;text-rendering:auto;enable-background:accumulate;stop-color:#000000;stop-opacity:1;"
         d="m 8.4666629,282.32263 v 7.56691"
         id="path910" />
    </g>
    <g
       id="path1398"
       style="opacity:1">
      <path
         style="color:#000000;font-style:normal;font-variant:normal;font-weight:normal;font-stretch:normal;font-size:medium;line-height:normal;font-family:sans-serif;font-variant-ligatures:normal;font-variant-position:normal;font-variant-caps:normal;font-variant-numeric:normal;font-variant-alternates:normal;font-variant-east-asian:normal;font-feature-settings:normal;font-variation-settings:normal;text-indent:0;text-align:start;text-decoration:none;text-decoration-line:none;text-decoration-style:solid;text-decoration-color:#000000;letter-spacing:normal;word-spacing:normal;text-transform:none;writing-mode:lr-tb;direction:ltr;text-orientation:mixed;dominant-baseline:auto;baseline-shift:baseline;text-anchor:start;white-space:normal;shape-padding:0;shape-margin:0;inline-size:0;clip-rule:nonzero;display:inline;overflow:visible;visibility:visible;isolation:auto;mix-blend-mode:normal;color-interpolation:sRGB;color-interpolation-filters:linearRGB;solid-color:#000000;solid-opacity:1;vector-effect:none;fill:#4d4d4d;fill-opacity:1;fill-rule:nonzero;stroke:none;stroke-width:1.05833;stroke-linecap:round;stroke-linejoin:round;stroke-miterlimit:4;stroke-dasharray:none;stroke-dashoffset:0;stroke-opacity:1.0;color-rendering:auto;image-rendering:auto;shape-rendering:auto;text-rendering:auto;enable-background:accumulate;stop-color:#000000;stop-opacity:1;"
         d="m 8.4666623,282.38179 v 8.88561"
         id="path926" />
      <path
         style="color:#000000;font-style:normal;font-variant:normal;font-weight:normal;font-stretch:normal;font-size:medium;line-height:normal;font-family:sans-serif;font-variant-ligatures:normal;font-variant-position:normal;font-variant-caps:normal;font-variant-numeric:normal;font-variant-alternates:normal;font-variant-east-asian:normal;font-feature-settings:normal;font-variation-settings:normal;text-indent:0;text-align:start;text-decoration:none;text-decoration-line:none;text-decoration-style:solid;text-decoration-color:#000000;letter-spacing:normal;word-spacing:normal;text-transform:none;writing-mode:lr-tb;direction:ltr;text-orientation:mixed;dominant-baseline:auto;baseline-shift:baseline;text-anchor:start;white-space:normal;shape-padding:0;shape-margin:0;inline-size:0;clip-rule:nonzero;display:inline;overflow:visible;visibility:visible;isolation:auto;mix-blend-mode:normal;color-interpolation:sRGB;color-interpolation-filters:linearRGB;solid-color:#000000;solid-opacity:1;vector-effect:none;fill:#4d4d4d;fill-opacity:1;fill-rule:nonzero;stroke:none;stroke-linecap:round;stroke-linejoin:round;stroke-miterlimit:4;stroke-dasharray:none;stroke-dashoffset:0;stroke-opacity:1.0;color-rendering:auto;image-rendering:auto;shape-rendering:auto;text-rendering:auto;enable-background:accumulate;stop-color:#000000;stop-opacity:1;"
         d="M 8.4667969 281.85352 A 0.52916664 0.52916664 0 0 0 7.9375 282.38086 L 7.9375 291.26758 A 0.52916664 0.52916664 0 0 0 8.4667969 291.79688 A 0.52916664 0.52916664 0 0 0 8.9960938 291.26758 L 8.9960938 282.38086 A 0.52916664 0.52916664 0 0 0 8.4667969 281.85352 z "
         id="path928" />
    </g>
    <path
       sodipodi:nodetypes="ccccccc"
       id="path865"
       d="m 16.473459,296.54015 v -3.71045 h -0.533785 v 3.17665 H 0.4598724 v 0.5338 z"
       style="opacity:0.25;fill:url(#linearGradient899);fill-opacity:1;stroke:none;stroke-width:0.36464739;stroke-linecap:round;stroke-linejoin:bevel;stroke-miterlimit:4;stroke-dasharray:none;stroke-opacity:1"
       inkscape:connector-curvature="0" />
  </g>
</svg>
